# xmcd
#
# Track frame offsets:
#	187
#	10595
#	20587
#	32870
#	43937
#	58910
#	71087
#	83352
#	92497
#	102335
#
# Disc length: 1547
#
# Revision: 3
# Processed by: cddbd v1.5.1PL0 Copyright (c) Steve Scherf et al.
# Submitted via: DiscPlay 4.0.4
# Normalized: r1:TDELIM( - ),TSWAP
#
DISCID=7906090a
DTITLE=Various Country Artists - Country Gold - Volume 5
DYEAR=1900
DGENRE=
TTITLE0=Willie Nelson - Broken Promises
TTITLE1=Kitty Wells - Release Me
TTITLE2=George Jones - Least Of All
TTITLE3=Roger Miller - Husbands And Wives
TTITLE4=Ernest Tubbs And Marty Robbins - Rainbow At Midnight
TTITLE5=Willie Nelson - Happiness Lives Next Door
TTITLE6=Kitty Wells - Lonely Side Of Town
TTITLE7=Roger Miller - Chug-A-Lug
TTITLE8=George Jones - World's Worst Loser
TTITLE9=Faron Young - It's Four In The Morning
EXTD=
EXTT0=
EXTT1=
EXTT2=
EXTT3=
EXTT4=
EXTT5=
EXTT6=
EXTT7=
EXTT8=
EXTT9=
PLAYORDER=
